<svg xmlns="http://www.w3.org/2000/svg" data-name="Layer 1" width="809.3" height="629.9" viewBox="0 0 809.34183 629.87561" xmlns:xlink="http://www.w3.org/1999/xlink"><path d="M 363.3 549.4 C 326.8 513.4 311.3 475.8 319.8 443.6 c 10.9 -41.3 59.6 -69.9 133.4 -78.4 l 0.3 2.4 c -72.8 8.4 -120.7 36.3 -131.4 76.7 c -8.3 31.4 6.9 68.1 42.9 103.5 Z" transform="translate(-195.3,-135.1)" fill="#f0f0f0"/><path d="M 716.4 677.2 c -45.7 0 -95.3 -6.8 -144.6 -19.8 c -61 -16.1 -116.9 -40.5 -161.6 -70.4 l 1.3 -2 c 44.6 29.8 100.2 54 160.9 70.1 c 54.9 14.5 110.1 21.3 159.8 19.5 l 0.1 2.4 Q 724.4 677.2 716.4 677.2 Z" transform="translate(-195.3,-135.1)" fill="#f0f0f0"/><path d="M 821.2 662.2 l -0.8 -2.3 c 40.8 -13.8 66.4 -36.1 73.9 -64.3 c 9.5 -35.9 -11.2 -77.7 -58.2 -117.5 C 788.8 438.2 720.6 405 644 384.7 l 0.6 -2.3 c 76.9 20.4 145.4 53.7 193 93.9 c 47.8 40.4 68.8 83 59 119.9 C 888.9 625.3 862.8 648.2 821.2 662.2 Z" transform="translate(-195.3,-135.1)" fill="#f0f0f0"/><path d="M 446.1 678.2 C 356.4 638.4 287.2 586.8 251.4 532.8 l 2 -1.3 C 289 585.1 357.8 636.4 447.1 676.1 Z" transform="translate(-195.3,-135.1)" fill="#f0f0f0"/><path d="M 761.6 747.2 q -13.9 0 -28.2 -0.6 l 0.1 -2.4 c 71.4 3.1 134.5 -5.5 182.3 -24.7 l 0.9 2.2 C 874.9 738.5 821.8 747.2 761.6 747.2 Z" transform="translate(-195.3,-135.1)" fill="#f0f0f0"/><path d="M 709.6 367.3 c -14.8 -4.8 -30.1 -9.3 -45.3 -13.4 c -87.8 -23.2 -174.1 -31.5 -249.6 -23.9 l -0.2 -2.4 c 75.8 -7.7 162.4 0.6 250.4 23.9 c 15.3 4.1 30.6 8.6 45.5 13.4 Z" transform="translate(-195.3,-135.1)" fill="#f0f0f0"/><path d="M 307.3 553 c -36.6 -36 -52 -73.6 -43.5 -105.8 c 10.9 -41.3 59.6 -69.9 133.4 -78.4 l 0.3 2.4 c -72.8 8.4 -120.7 36.3 -131.4 76.7 c -8.3 31.4 6.9 68.1 42.9 103.5 Z" transform="translate(-195.3,-135.1)" fill="#f0f0f0"/><path d="M 660.3 680.8 c -45.7 0 -95.3 -6.8 -144.6 -19.8 c -61 -16.1 -116.9 -40.5 -161.6 -70.4 l 1.3 -2 c 44.6 29.8 100.2 54 160.9 70.1 c 54.9 14.5 110.1 21.3 159.8 19.5 l 0.1 2.4 Q 668.4 680.8 660.3 680.8 Z" transform="translate(-195.3,-135.1)" fill="#f0f0f0"/><path d="M 765.1 665.8 l -0.8 -2.3 c 40.8 -13.8 66.4 -36.1 73.9 -64.3 c 9.5 -35.9 -11.2 -77.7 -58.2 -117.5 c -47.3 -40 -115.5 -73.2 -192.1 -93.5 l 0.6 -2.3 C 665.4 406.3 734 439.7 781.5 479.9 C 829.3 520.4 850.3 562.9 840.5 599.8 C 832.8 628.9 806.7 651.7 765.1 665.8 Z" transform="translate(-195.3,-135.1)" fill="#f0f0f0"/><path d="M 390 681.8 c -89.7 -39.8 -158.9 -91.4 -194.7 -145.4 l 2 -1.3 c 35.6 53.6 104.4 104.9 193.7 144.5 Z" transform="translate(-195.3,-135.1)" fill="#f0f0f0"/><path d="M 705.5 750.8 q -13.9 0 -28.2 -0.6 l 0.1 -2.4 c 71.4 3.1 134.5 -5.5 182.3 -24.7 l 0.9 2.2 C 818.9 742.1 765.7 750.8 705.5 750.8 Z" transform="translate(-195.3,-135.1)" fill="#f0f0f0"/><path d="M 653.5 370.9 c -14.8 -4.8 -30.1 -9.3 -45.3 -13.4 c -87.8 -23.2 -174.1 -31.5 -249.6 -23.9 l -0.2 -2.4 c 75.8 -7.7 162.4 0.6 250.4 23.9 c 15.3 4.1 30.6 8.6 45.5 13.4 Z" transform="translate(-195.3,-135.1)" fill="#f0f0f0"/><path d="M 236 489 c 17.1 -19.2 44.5 -30.9 69.3 -23.9 a 118.7 118.7 0 0 0 -46.3 67.1 c -2.7 10.5 -4.6 22.4 -13.3 28.8 c -5.4 4 -12.6 4.9 -19.3 4 c -6.7 -0.9 -13 -3.5 -19.2 -6.1 l -1.7 0.1 C 210.4 533.7 218.9 508.3 236 489 Z" transform="translate(-195.3,-135.1)" fill="#f2f2f2"/><path d="M 305.2 465.6 a 101.5 101.5 0 0 0 -53.2 32.6 a 43.7 43.7 0 0 0 -7.4 11.5 a 25.1 25.1 0 0 0 -1.5 13.1 c 0.6 4.1 1.6 8.3 1.1 12.5 a 15.3 15.3 0 0 1 -6.5 10.7 c -4.4 3.2 -9.6 4.6 -14.8 5.8 c -5.7 1.3 -11.7 2.7 -16.4 6.5 c -0.6 0.5 -1.3 -0.4 -0.7 -0.9 c 8.1 -6.6 19.5 -5.8 28.5 -10.6 c 4.2 -2.2 7.8 -5.8 8.6 -10.6 c 0.8 -4.2 -0.3 -8.5 -0.9 -12.7 a 26.7 26.7 0 0 1 1 -12.9 a 40.4 40.4 0 0 1 6.9 -11.8 a 98.4 98.4 0 0 1 22.9 -20.5 a 103.3 103.3 0 0 1 32.2 -13.9 c 0.7 -0.2 0.8 1 0.1 1.1 Z" transform="translate(-195.3,-135.1)" fill="#ffffff"/><path d="M 256.2 492.8 a 15.2 15.2 0 0 1 -0.5 -19.7 c 0.5 -0.6 1.4 0.1 0.9 0.7 a 14.1 14.1 0 0 0 0.5 18.3 c 0.5 0.5 -0.4 1.2 -0.9 0.7 Z" transform="translate(-195.3,-135.1)" fill="#ffffff"/><path d="M 242.6 520.9 a 29.3 29.3 0 0 0 20.4 -6.5 c 0.6 -0.5 1.3 0.4 0.7 0.9 a 30.5 30.5 0 0 1 -21.2 6.7 c -0.7 -0.1 -0.6 -1.2 0.2 -1.1 Z" transform="translate(-195.3,-135.1)" fill="#ffffff"/><path d="M 283 473.5 a 8.6 8.6 0 0 0 7 4.3 c 0.7 0 0.6 1.2 -0.2 1.1 a 9.7 9.7 0 0 1 -7.7 -4.7 a 0.6 0.6 0 0 1 0.1 -0.8 a 0.6 0.6 0 0 1 0.8 0.1 Z" transform="translate(-195.3,-135.1)" fill="#ffffff"/><path d="M 340.5 544.9 c -0.5 0 -0.9 0 -1.4 0 a 113.5 113.5 0 0 0 -18.4 1.1 c -0.5 0.1 -0.9 0.1 -1.4 0.2 a 119.6 119.6 0 0 0 -41.6 14.5 a 116.2 116.2 0 0 0 -14.6 9.9 c -6.4 5.1 -12.9 11.1 -20.3 13.7 a 19.9 19.9 0 0 1 -2.4 0.7 l -34.6 -23.9 c -0.1 -0.1 -0.1 -0.2 -0.2 -0.3 l -1.4 -0.9 c 0.2 -0.2 0.5 -0.4 0.7 -0.6 c 0.1 -0.1 0.3 -0.2 0.4 -0.4 c 0.1 -0.1 0.2 -0.2 0.3 -0.2 c 0 0 0.1 -0.1 0.1 -0.1 c 0.1 -0.1 0.2 -0.1 0.2 -0.2 q 2 -1.8 4 -3.5 c 0 0 0 0 0 0 c 10.3 -8.8 21.3 -16.8 33.3 -22.9 c 0.4 -0.2 0.7 -0.4 1.1 -0.5 a 110.9 110.9 0 0 1 16.8 -6.8 a 98 98 0 0 1 9.6 -2.4 a 81.5 81.5 0 0 1 25.5 -1 c 16.9 2 33 9.4 43.5 22.6 C 340 544.2 340.2 544.6 340.5 544.9 Z" transform="translate(-195.3,-135.1)" fill="#f2f2f2"/><path d="M 340.1 545.3 a 101.5 101.5 0 0 0 -62.1 -6 a 43.7 43.7 0 0 0 -12.8 4.8 a 25.1 25.1 0 0 0 -9.1 9.6 c -2 3.6 -3.7 7.6 -6.6 10.7 a 15.3 15.3 0 0 1 -11.7 4.7 c -5.4 -0.1 -10.4 -2.1 -15.3 -4.2 c -5.4 -2.4 -11 -4.9 -17 -4.7 c -0.7 0 -0.7 -1.1 0 -1.1 c 10.5 -0.4 19 7.1 29.1 8.7 c 4.7 0.7 9.7 0.1 13.3 -3.3 c 3.2 -2.9 4.9 -7 6.9 -10.7 a 26.7 26.7 0 0 1 8.5 -9.7 a 40.4 40.4 0 0 1 12.6 -5.3 a 98.4 98.4 0 0 1 30.7 -2.6 a 103.3 103.3 0 0 1 34.1 8.3 c 0.7 0.3 0.1 1.3 -0.6 1 Z" transform="translate(-195.3,-135.1)" fill="#ffffff"/><path d="M 284.6 537.5 a 15.2 15.2 0 0 1 11.5 -16 c 0.7 -0.2 1 0.9 0.3 1.1 a 14.1 14.1 0 0 0 -10.7 14.9 c 0.1 0.7 -1.1 0.7 -1.1 0 Z" transform="translate(-195.3,-135.1)" fill="#ffffff"/><path d="M 256.9 551.7 a 29.3 29.3 0 0 0 20.2 7.1 c 0.7 0 0.7 1.1 0 1.1 a 30.5 30.5 0 0 1 -21 -7.5 c -0.6 -0.5 0.3 -1.3 0.8 -0.8 Z" transform="translate(-195.3,-135.1)" fill="#ffffff"/><path d="M 317.7 538.2 a 8.6 8.6 0 0 0 3 7.6 c 0.6 0.5 -0.2 1.3 -0.8 0.8 a 9.7 9.7 0 0 1 -3.3 -8.4 a 0.6 0.6 0 0 1 0.6 -0.6 a 0.6 0.6 0 0 1 0.6 0.6 Z" transform="translate(-195.3,-135.1)" fill="#ffffff"/><path d="M 908 646.7 c -9.7 -23.9 -31.5 -44.1 -57.2 -45.8 a 118.7 118.7 0 0 1 21.1 78.7 c -1 10.8 -3.2 22.6 2.8 31.6 c 3.8 5.6 10.2 8.9 16.8 10.3 c 6.6 1.4 13.4 1.1 20.1 0.7 l 1.5 0.7 C 917.1 697.4 917.7 670.5 908 646.7 Z" transform="translate(-195.3,-135.1)" fill="#f2f2f2"/><path d="M 850.7 601.4 a 101.5 101.5 0 0 1 39.1 48.6 a 43.7 43.7 0 0 1 3.1 13.3 a 25.1 25.1 0 0 1 -3 12.8 c -1.9 3.7 -4.3 7.3 -5.3 11.4 a 15.3 15.3 0 0 0 2.5 12.3 c 3 4.5 7.5 7.6 11.9 10.4 c 5 3.2 10.1 6.4 13.3 11.6 c 0.4 0.6 1.3 0 0.9 -0.6 c -5.4 -9 -16.4 -12 -23.2 -19.6 c -3.2 -3.5 -5.4 -8 -4.5 -12.9 c 0.7 -4.2 3.2 -7.9 5.1 -11.7 A 26.7 26.7 0 0 0 894 664.7 a 40.4 40.4 0 0 0 -2.5 -13.4 a 98.4 98.4 0 0 0 -14.7 -27 a 103.3 103.3 0 0 0 -25.6 -23.9 c -0.6 -0.4 -1.1 0.6 -0.5 1 Z" transform="translate(-195.3,-135.1)" fill="#ffffff"/><path d="M 887.7 643.4 a 15.2 15.2 0 0 0 7.1 -18.4 c -0.2 -0.7 -1.3 -0.3 -1.1 0.3 a 14.1 14.1 0 0 1 -6.6 17.1 c -0.6 0.3 0 1.3 0.6 0.9 Z" transform="translate(-195.3,-135.1)" fill="#ffffff"/><path d="M 891.1 674.4 a 29.3 29.3 0 0 1 -17 -12.9 c -0.4 -0.6 -1.3 0 -0.9 0.6 a 30.5 30.5 0 0 0 17.7 13.4 c 0.7 0.2 0.9 -0.9 0.2 -1.1 Z" transform="translate(-195.3,-135.1)" fill="#ffffff"/><path d="M 868.9 616.2 a 8.6 8.6 0 0 1 -8 1.7 c -0.7 -0.2 -0.9 0.9 -0.2 1.1 a 9.7 9.7 0 0 0 8.8 -1.9 a 0.6 0.6 0 0 0 0.2 -0.8 a 0.6 0.6 0 0 0 -0.8 -0.2 Z" transform="translate(-195.3,-135.1)" fill="#ffffff"/><path d="M 790.8 664.2 c 0.4 0.1 0.9 0.3 1.3 0.4 a 113.5 113.5 0 0 1 16.9 7.2 c 0.4 0.2 0.9 0.4 1.3 0.7 a 119.6 119.6 0 0 1 34.3 27.6 a 116.2 116.2 0 0 1 10.4 14.3 c 4.3 6.9 8.4 14.8 14.5 19.7 a 19.9 19.9 0 0 0 2 1.4 l 40.6 -10.9 c 0.1 -0.1 0.2 -0.1 0.2 -0.2 l 1.6 -0.4 c -0.1 -0.3 -0.3 -0.5 -0.4 -0.8 c -0.1 -0.2 -0.2 -0.3 -0.3 -0.5 c -0.1 -0.1 -0.1 -0.2 -0.2 -0.3 c 0 0 0 -0.1 -0.1 -0.1 c 0 -0.1 -0.1 -0.2 -0.1 -0.3 q -1.3 -2.3 -2.6 -4.6 c 0 0 0 0 0 0 c -6.7 -11.7 -14.4 -23 -23.7 -32.7 c -0.3 -0.3 -0.6 -0.6 -0.9 -0.9 a 110.9 110.9 0 0 0 -13.5 -12 a 98 98 0 0 0 -8.2 -5.5 a 81.5 81.5 0 0 0 -23.7 -9.5 c -16.6 -3.8 -34.2 -2.2 -48.5 6.6 C 791.5 663.7 791.2 663.9 790.8 664.2 Z" transform="translate(-195.3,-135.1)" fill="#f2f2f2"/><path d="M 791 664.7 a 101.5 101.5 0 0 1 60.5 15.3 a 43.7 43.7 0 0 1 10.5 8.8 a 25.1 25.1 0 0 1 5.3 12.1 c 0.7 4.1 0.9 8.4 2.6 12.3 a 15.3 15.3 0 0 0 9.4 8.3 c 5.1 1.7 10.5 1.5 15.8 1.1 c 5.9 -0.4 12 -1 17.6 1.3 c 0.7 0.3 1.1 -0.8 0.4 -1.1 c -9.7 -3.9 -20.3 0.3 -30.3 -1.6 c -4.7 -0.9 -9.1 -3.2 -11.4 -7.6 c -2 -3.8 -2.2 -8.2 -2.9 -12.4 a 26.7 26.7 0 0 0 -4.8 -12 a 40.4 40.4 0 0 0 -10.1 -9.2 a 98.4 98.4 0 0 0 -28 -12.7 a 103.3 103.3 0 0 0 -34.9 -3.7 c -0.7 0 -0.5 1.2 0.2 1.1 Z" transform="translate(-195.3,-135.1)" fill="#ffffff"/><path d="M 846 675.9 a 15.2 15.2 0 0 0 -5.4 -18.9 c -0.6 -0.4 -1.3 0.5 -0.7 0.9 a 14.1 14.1 0 0 1 5 17.6 c -0.3 0.7 0.8 1 1.1 0.4 Z" transform="translate(-195.3,-135.1)" fill="#ffffff"/><path d="M 867.3 698.7 a 29.3 29.3 0 0 1 -21.4 -0.1 c -0.7 -0.3 -1.1 0.8 -0.4 1.1 a 30.5 30.5 0 0 0 22.3 0 c 0.7 -0.3 0.2 -1.3 -0.5 -1 Z" transform="translate(-195.3,-135.1)" fill="#ffffff"/><path d="M 814.6 665.5 a 8.6 8.6 0 0 1 -5.4 6.2 c -0.7 0.3 -0.2 1.3 0.5 1 a 9.7 9.7 0 0 0 5.9 -6.8 a 0.6 0.6 0 0 0 -0.3 -0.7 a 0.6 0.6 0 0 0 -0.7 0.3 Z" transform="translate(-195.3,-135.1)" fill="#ffffff"/><circle cx="524.7" cy="583.3" r="9.5" fill="#fd6584"/><circle cx="558.5" cy="420.7" r="9.5" fill="#e6e6e6"/><circle cx="380.9" cy="156" r="9.5" fill="#e6e6e6"/><path d="M 376.2 657.2 c 0 2.4 0.1 4.9 0.3 7.3 c 0.2 2.9 0.5 5.7 0.9 8.6 a 107.2 107.2 0 0 0 8 27.7 q 0.3 0.7 0.6 1.3 l 0.3 0.7 c 0.1 0.2 0.2 0.4 0.3 0.7 c 0.1 0.3 0.3 0.6 0.4 0.8 c 0.2 0.3 0.3 0.7 0.5 1.1 c 0 0 0 0.1 0.1 0.1 c 0.1 0.3 0.3 0.6 0.5 0.9 a 1.7 1.7 0 0 0 0.1 0.2 c 0.2 0.3 0.3 0.7 0.5 1 c 0.2 0.4 0.4 0.7 0.6 1.1 c 0.5 0.9 1 1.8 1.5 2.6 c 0.1 0.3 0.3 0.5 0.5 0.8 c 0.1 0.2 0.3 0.5 0.4 0.7 c 0.1 0.2 0.2 0.3 0.3 0.5 c 0.2 0.3 0.3 0.5 0.5 0.8 c 0.4 0.6 0.8 1.2 1.1 1.8 h 0 c 0.2 0.3 0.3 0.5 0.5 0.8 v 0 c 0.5 0.8 1.1 1.6 1.6 2.4 a 0 0 0 0 1 0 0 c 0.4 0.6 0.9 1.3 1.4 1.9 v 0 c 0.3 0.4 0.6 0.8 0.9 1.2 c 0.2 0.3 0.5 0.7 0.7 1 c 0.1 0.1 0.1 0.1 0.2 0.2 v 0 c 0.1 0.1 0.1 0.2 0.2 0.3 q 1.6 2 3.3 4 l 0.2 0.2 c 0.1 0.1 0.1 0.1 0.2 0.2 c 0.1 0.1 0.2 0.2 0.3 0.3 c 0.1 0.1 0.2 0.2 0.3 0.3 a 108.6 108.6 0 0 0 19.8 17.5 c 1 0.7 2 1.3 3 1.9 c 0.3 0.2 0.5 0.3 0.8 0.5 c 0.1 0.1 0.1 0.1 0.2 0.1 c 0.1 0.1 0.3 0.2 0.4 0.3 c 0.1 0.1 0.3 0.2 0.4 0.2 c 0.5 0.3 1.1 0.7 1.6 1 c 0.1 0.1 0.3 0.2 0.4 0.2 c 0.1 0.1 0.3 0.1 0.4 0.2 c 0 0 0 0 0 0 h 0 v 0 h 0 q 1 0.6 2 1.1 c 0.4 0.2 0.8 0.4 1.1 0.6 c 0.9 0.5 1.7 0.9 2.6 1.4 c 0.3 0.1 0.6 0.3 0.9 0.5 c 0.3 0.1 0.5 0.3 0.8 0.4 c 0.1 0 0.1 0.1 0.2 0.1 c 0.2 0.1 0.4 0.2 0.7 0.3 c 0.2 0.1 0.5 0.2 0.7 0.3 c 0.3 0.1 0.5 0.2 0.8 0.3 c 1 0.5 2 0.9 3 1.3 a 105.9 105.9 0 0 0 11.1 3.8 c 0.2 0.1 0.3 0.1 0.5 0.1 q 2.4 0.7 4.9 1.2 q 4.3 1 8.6 1.6 h 0 c 0.3 0.1 0.7 0.1 1 0.1 c 0 0 0.1 0 0.1 0 c 0 0 0 0 0 0 c 0.4 0.1 0.8 0.1 1.1 0.1 a 0.2 0.2 0 0 0 0.1 0 c 0.4 0.1 0.7 0.1 1.1 0.1 q 0.6 0.1 1.2 0.1 q 0.5 0 0.9 0.1 a 0.2 0.2 0 0 0 0.1 0 c 0.3 0 0.5 0.1 0.8 0.1 h 0 c 0.2 0 0.5 0 0.7 0.1 c 2.8 0.2 5.6 0.3 8.4 0.3 c 3.1 0 6.1 -0.1 9.1 -0.4 h 0 c 0.7 -0.1 1.3 -0.1 1.9 -0.2 c 0.2 0 0.3 0 0.5 -0.1 c 0 0 0.1 0 0.1 0 c 0.1 0 0.1 0 0.2 0 a 0.2 0.2 0 0 0 0.1 0 c 0.2 0 0.4 -0.1 0.7 -0.1 l 0.8 -0.1 c 0.3 0 0.5 -0.1 0.8 -0.1 c 0.1 0 0.1 0 0.2 0 c 0.2 0 0.4 -0.1 0.5 -0.1 c 0.1 0 0.2 0 0.3 0 c 0.2 0 0.3 -0.1 0.5 -0.1 h 0 a 105.7 105.7 0 0 0 16.2 -3.6 c 0.3 -0.1 0.6 -0.2 0.8 -0.3 c 0 0 0 0 0 0 c 0.1 0 0.2 -0.1 0.3 -0.1 c 0.8 -0.2 1.5 -0.5 2.2 -0.8 c 1 -0.3 2 -0.7 3 -1.1 c 0.3 -0.1 0.5 -0.2 0.8 -0.3 c 0.6 -0.2 1.1 -0.4 1.6 -0.7 c 0.9 -0.4 1.8 -0.8 2.8 -1.2 c 0.8 -0.4 1.7 -0.8 2.5 -1.2 c 0 0 0.1 0 0.1 0 c 0.2 -0.1 0.4 -0.2 0.6 -0.3 h 0 a 107.2 107.2 0 0 0 13.3 -7.6 q 2 -1.4 4 -2.8 c 1.1 -0.8 2.1 -1.6 3.1 -2.4 a 108.3 108.3 0 0 0 14.2 -13.6 v 0 c 0.3 -0.3 0.6 -0.7 0.9 -1 c 0.1 -0.1 0.1 -0.1 0.1 -0.1 c 0.2 -0.2 0.4 -0.5 0.6 -0.7 v 0 c 0.3 -0.3 0.5 -0.6 0.7 -0.9 c 0.1 -0.1 0.1 -0.1 0.2 -0.2 v 0 c 0.2 -0.2 0.4 -0.5 0.6 -0.7 c 0.1 -0.1 0.2 -0.2 0.3 -0.4 v 0 c 0.6 -0.7 1.2 -1.5 1.7 -2.2 c 0.1 -0.2 0.3 -0.4 0.5 -0.6 c 0.7 -1 1.4 -2 2.1 -3 v 0 c 0.3 -0.4 0.5 -0.8 0.8 -1.1 q 0.4 -0.6 0.8 -1.1 c 0.3 -0.4 0.5 -0.8 0.8 -1.2 l 0 -0.1 c 0.3 -0.4 0.5 -0.8 0.7 -1.2 c 0.2 -0.3 0.4 -0.6 0.6 -0.9 c 0.1 -0.2 0.3 -0.4 0.4 -0.6 a 2.4 2.4 0 0 0 0.1 -0.2 q 0.4 -0.7 0.8 -1.5 c 0.3 -0.6 0.7 -1.1 1 -1.7 c 0.1 -0.2 0.3 -0.5 0.4 -0.7 c 0.1 -0.1 0.1 -0.2 0.1 -0.2 c 0.1 -0.3 0.3 -0.6 0.4 -0.9 c 0.1 -0.3 0.3 -0.6 0.5 -0.9 c 0.1 -0.3 0.3 -0.6 0.4 -0.9 c 0.1 -0.2 0.2 -0.4 0.3 -0.7 a 0.2 0.2 0 0 1 0 -0.1 c 0.1 -0.1 0.1 -0.2 0.1 -0.3 a 0.2 0.2 0 0 0 0 -0.1 c 0.1 -0.2 0.2 -0.5 0.3 -0.7 c 0.1 -0.3 0.3 -0.6 0.4 -0.9 c 0.1 -0.2 0.2 -0.4 0.3 -0.6 c 0.1 -0.3 0.3 -0.6 0.4 -0.9 c 0.1 -0.3 0.3 -0.6 0.4 -0.9 a 2.3 2.3 0 0 0 0.1 -0.2 c 0.1 -0.1 0.1 -0.3 0.2 -0.4 c 0.2 -0.4 0.3 -0.8 0.5 -1.1 c 0.2 -0.4 0.3 -0.8 0.5 -1.3 c 0.2 -0.4 0.3 -0.8 0.5 -1.2 l 0.1 -0.1 a 108.3 108.3 0 0 0 5.3 -18.9 v 0 a 109.4 109.4 0 0 0 1.4 -11.1 c 0 -0.2 0 -0.4 0 -0.6 c 0.2 -2.5 0.3 -5.1 0.3 -7.6 c 0 -1.1 0 -2.3 -0.1 -3.4 a 107.2 107.2 0 0 0 -23.8 -64.2 c -0.3 -0.4 -0.6 -0.8 -1 -1.2 c -0.3 -0.4 -0.7 -0.8 -1 -1.2 a 107.7 107.7 0 0 0 -173 12.4 c -0.5 0.8 -1 1.6 -1.4 2.4 c -0.5 0.8 -0.9 1.6 -1.4 2.4 A 107.3 107.3 0 0 0 376.2 657.2 Z" transform="translate(-195.3,-135.1)" fill="#f2f2f2"/><path d="M 479.6 586.7 a 254.2 254.2 0 0 0 54.1 7.8 a 67.8 67.8 0 0 0 8.3 -0.1 c 6.1 -0.5 11.3 -2.4 17.1 -3.5 c 2.8 -0.5 5.9 -0.9 8.7 -1.4 q -1 -1.2 -2 -2.4 c -6 0.5 -12.2 2.2 -18.3 3 c -10.4 1.3 -22 -0.2 -29.9 -3.8 c -3.8 -1.8 -6.8 -4 -10.6 -5.7 a 4.9 4.9 0 0 0 -1.7 -0.5 a 5.8 5.8 0 0 0 -3.1 0.8 c -6.4 3.2 -15.7 5.8 -24.3 4.4 C 477.3 585.9 478.6 586.5 479.6 586.7 Z" transform="translate(-195.3,-135.1)" fill="#ffffff"/><path d="M 441.5 598.1 c -0.1 0 -0.2 0 -0.2 0 a 6.4 6.4 0 0 0 0.9 -0.7 Z" transform="translate(-195.3,-135.1)" fill="#ffffff"/><path d="M 389.9 604.5 q 5.4 0.4 10.8 0.6 a 68.3 68.3 0 0 0 8.3 -0.1 c 6.1 -0.5 11.3 -2.4 17.1 -3.5 c 5.3 -1 11.8 -1.4 15.1 -3.5 c -8.7 -1.5 -17.7 1.6 -26.7 2.7 a 63.8 63.8 0 0 1 -21.8 -1.1 Q 391.3 602 389.9 604.5 Z" transform="translate(-195.3,-135.1)" fill="#ffffff"/><path d="M 433.5 752.4 c 0.9 0.5 1.7 0.9 2.6 1.4 c 0.3 0.1 0.6 0.3 0.9 0.5 c 0.3 0.1 0.5 0.3 0.8 0.4 c 0.1 0 0.1 0.1 0.2 0.1 c 0.2 0.1 0.4 0.2 0.7 0.3 c 0.2 0.1 0.5 0.2 0.7 0.3 c 0.3 0.1 0.5 0.2 0.8 0.3 c 1 0.5 2 0.9 3 1.3 a 105.9 105.9 0 0 0 11.1 3.8 c 0.2 0.1 0.3 0.1 0.5 0.1 q 2.4 0.7 4.9 1.2 q 4.3 1 8.6 1.6 h 0 c 0.3 0.1 0.7 0.1 1 0.1 c 0 0 0.1 0 0.1 0 c 0 0 0 0 0 0 c 0.4 0.1 0.8 0.1 1.1 0.1 a 0.2 0.2 0 0 0 0.1 0 c 0.4 0.1 0.7 0.1 1.1 0.1 q 0.6 0.1 1.2 0.1 q 0.5 0 0.9 0.1 a 0.2 0.2 0 0 0 0.1 0 c 0.3 0 0.5 0.1 0.8 0.1 h 0 c 0.2 0 0.5 0 0.7 0.1 c 2.8 0.2 5.6 0.3 8.4 0.3 c 3.1 0 6.1 -0.1 9.1 -0.4 h 0 c 0.7 -0.1 1.3 -0.1 1.9 -0.2 c 0.2 0 0.3 0 0.5 -0.1 c 0 0 0.1 0 0.1 0 c 0.1 0 0.1 0 0.2 0 a 0.2 0.2 0 0 0 0.1 0 c 0.2 0 0.4 -0.1 0.7 -0.1 l 0.8 -0.1 c 0.3 0 0.5 -0.1 0.8 -0.1 c 0.1 0 0.1 0 0.2 0 c 0.2 0 0.4 -0.1 0.5 -0.1 c 0.1 0 0.2 0 0.3 0 c 0.2 0 0.3 -0.1 0.5 -0.1 h 0 a 105.7 105.7 0 0 0 16.2 -3.6 c 0.3 -0.1 0.6 -0.2 0.8 -0.3 a 40.2 40.2 0 0 0 -22 -27.9 a 9.5 9.5 0 0 0 2.7 -4.9 a 9.3 9.3 0 0 0 -1.3 -7 a 9 9 0 0 0 -5.7 -3.9 l -14.8 -3.1 a 9.2 9.2 0 0 0 -10.8 7.2 a 9.8 9.8 0 0 0 -0.2 2.2 C 450.2 732.1 439.9 742 433.5 752.4 Z" transform="translate(-195.3,-135.1)" fill="#6c63ff"/><circle cx="281.9" cy="541.4" r="30.9" fill="#ffb8b8"/><path d="M 458 703.1 c -3.3 -2.2 -6.7 -6.6 -8.9 -9.8 a 37.1 37.1 0 0 1 -5.7 -29.6 a 11.3 11.3 0 0 1 2.7 -5.4 c 1.5 -1.4 3.8 -2.1 5.6 -1.1 a 10.1 10.1 0 0 1 0.4 -8 a 17.9 17.9 0 0 1 5.3 -6.3 a 29.7 29.7 0 0 1 30.3 -3.6 c 1.9 0.9 -1.2 -6 0.8 -5.3 a 8.2 8.2 0 0 0 6.2 -0.1 c 1.9 -1 8.2 4.7 7.5 2.7 a 9.4 9.4 0 0 1 2.2 15.7 c -1.6 1.3 -3.6 2.1 -5.3 3.3 a 15.3 15.3 0 0 0 -4.7 19.7 a 20.3 20.3 0 0 0 -6 -2.6 a 6.9 6.9 0 0 0 -6.1 1.5 a 7.7 7.7 0 0 0 -1.9 5.8 c 0.1 2.1 0.6 4.2 0.6 6.3 c 0.2 6.1 3.5 17.8 -1.3 21.1 C 475.8 709.8 462.5 706.1 458 703.1 Z" transform="translate(-195.3,-135.1)" fill="#2f2e41"/><path d="M 1003.7 172.4 H 196.3 a 1 1 0 0 1 0 -2.1 h 807.3 a 1 1 0 0 1 0 2.1 Z" transform="translate(-195.3,-135.1)" fill="#cacaca"/><ellipse cx="23.8" cy="11.4" rx="11.1" ry="11.4" fill="rgb(255, 86, 0)"/><ellipse cx="62.3" cy="11.4" rx="11.1" ry="11.4" fill="rgb(255, 220, 0)"/><ellipse cx="100.9" cy="11.4" rx="11.1" ry="11.4" fill="rgb(100, 202, 54)"/><path d="M 498.4 521.9 a 4.9 4.9 0 0 1 -1.9 -0.4 a 4.8 4.8 0 0 1 -3 -4.5 v -4.9 a 3.9 3.9 0 0 0 -3.9 -3.9 a 4.9 4.9 0 0 1 -4.9 -4.9 V 436.5 a 4.9 4.9 0 0 1 4.9 -4.9 H 711.5 a 4.9 4.9 0 0 1 4.9 4.9 v 67 a 4.9 4.9 0 0 1 -4.9 4.9 H 515.6 a 3.8 3.8 0 0 0 -2.7 1.1 l -11.1 11.1 A 4.8 4.8 0 0 1 498.4 521.9 Z" transform="translate(-195.3,-135.1)" fill="#ffffff"/><path d="M 498.4 522.9 a 5.9 5.9 0 0 1 -2.3 -0.5 a 5.8 5.8 0 0 1 -3.6 -5.4 v -4.9 a 2.9 2.9 0 0 0 -2.9 -2.9 a 5.9 5.9 0 0 1 -5.9 -5.9 V 436.5 a 5.9 5.9 0 0 1 5.9 -5.9 H 711.5 a 5.9 5.9 0 0 1 5.9 5.9 v 67 a 5.9 5.9 0 0 1 -5.9 5.9 H 515.6 a 2.8 2.8 0 0 0 -2 0.8 l -11.1 11.1 A 5.8 5.8 0 0 1 498.4 522.9 Z M 489.7 432.6 a 3.9 3.9 0 0 0 -3.9 3.9 v 67 a 3.9 3.9 0 0 0 3.9 3.9 a 4.9 4.9 0 0 1 4.9 4.9 v 4.9 a 3.9 3.9 0 0 0 6.6 2.7 l 11.1 -11.1 a 4.8 4.8 0 0 1 3.4 -1.4 H 711.5 a 3.9 3.9 0 0 0 3.9 -3.9 V 436.5 a 3.9 3.9 0 0 0 -3.9 -3.9 Z" transform="translate(-195.3,-135.1)" fill="#3f3d56"/><path d="M 692.4 461.9 H 512.6 a 2.6 2.6 0 0 1 0 -5.2 H 692.4 a 2.6 2.6 0 0 1 0 5.2 Z" transform="translate(-195.3,-135.1)" fill="#6c63ff"/><path d="M 692.1 472.9 H 512.6 a 2.6 2.6 0 0 1 0 -5.2 H 692.1 a 2.6 2.6 0 1 1 0 5.2 Z" transform="translate(-195.3,-135.1)" fill="#e6e6e6"/><path d="M 691.9 483.9 H 512.6 a 2.6 2.6 0 0 1 0 -5.2 H 691.9 a 2.6 2.6 0 0 1 0 5.2 Z" transform="translate(-195.3,-135.1)" fill="#e6e6e6"/><path d="M 975.7 421.2 c 0 2.4 -0.1 4.9 -0.3 7.3 c -0.2 2.9 -0.5 5.7 -0.9 8.6 a 107.2 107.2 0 0 1 -8 27.7 q -0.3 0.7 -0.6 1.3 l -0.3 0.7 c -0.1 0.2 -0.2 0.4 -0.3 0.7 c -0.1 0.3 -0.3 0.6 -0.4 0.8 c -0.2 0.3 -0.3 0.7 -0.5 1.1 c 0 0 0 0.1 -0.1 0.1 c -0.1 0.3 -0.3 0.6 -0.5 0.9 a 1.7 1.7 0 0 1 -0.1 0.2 c -0.2 0.3 -0.3 0.7 -0.5 1 c -0.2 0.4 -0.4 0.7 -0.6 1.1 c -0.5 0.9 -1 1.8 -1.5 2.6 c -0.1 0.3 -0.3 0.5 -0.5 0.8 c -0.1 0.2 -0.3 0.5 -0.4 0.7 c -0.1 0.2 -0.2 0.3 -0.3 0.5 c -0.2 0.3 -0.3 0.5 -0.5 0.8 c -0.4 0.6 -0.8 1.2 -1.1 1.8 h 0 c -0.2 0.3 -0.3 0.5 -0.5 0.8 v 0 c -0.5 0.8 -1.1 1.6 -1.6 2.4 a 0 0 0 0 0 0 0 c -0.4 0.6 -0.9 1.3 -1.4 1.9 v 0 c -0.3 0.4 -0.6 0.8 -0.9 1.2 c -0.2 0.3 -0.5 0.7 -0.7 1 c -0.1 0.1 -0.1 0.1 -0.2 0.2 v 0 c -0.1 0.1 -0.1 0.2 -0.2 0.3 q -1.6 2 -3.3 4 l -0.2 0.2 c -0.1 0.1 -0.1 0.1 -0.2 0.2 c -0.1 0.1 -0.2 0.2 -0.3 0.3 c -0.1 0.1 -0.2 0.2 -0.3 0.3 a 108.6 108.6 0 0 1 -19.8 17.5 c -1 0.7 -2 1.3 -3 1.9 c -0.3 0.2 -0.5 0.3 -0.8 0.5 c -0.1 0.1 -0.1 0.1 -0.2 0.1 c -0.1 0.1 -0.3 0.2 -0.4 0.3 c -0.1 0.1 -0.3 0.2 -0.4 0.2 c -0.5 0.3 -1.1 0.7 -1.6 1 c -0.1 0.1 -0.3 0.2 -0.4 0.2 c -0.1 0.1 -0.3 0.1 -0.4 0.2 c 0 0 0 0 0 0 h 0 v 0 h 0 q -1 0.6 -2 1.1 c -0.4 0.2 -0.8 0.4 -1.1 0.6 c -0.9 0.5 -1.7 0.9 -2.6 1.4 c -0.3 0.1 -0.6 0.3 -0.9 0.5 c -0.3 0.1 -0.5 0.3 -0.8 0.4 c -0.1 0 -0.1 0.1 -0.2 0.1 c -0.2 0.1 -0.4 0.2 -0.7 0.3 c -0.2 0.1 -0.5 0.2 -0.7 0.3 c -0.3 0.1 -0.5 0.2 -0.8 0.3 c -1 0.5 -2 0.9 -3 1.3 a 105.9 105.9 0 0 1 -11.1 3.8 c -0.2 0.1 -0.3 0.1 -0.5 0.1 q -2.4 0.7 -4.9 1.2 q -4.3 1 -8.6 1.6 h 0 c -0.3 0.1 -0.7 0.1 -1 0.1 c 0 0 -0.1 0 -0.1 0 c 0 0 0 0 0 0 c -0.4 0.1 -0.8 0.1 -1.1 0.1 a 0.2 0.2 0 0 1 -0.1 0 c -0.4 0.1 -0.7 0.1 -1.1 0.1 q -0.6 0.1 -1.2 0.1 q -0.5 0 -0.9 0.1 a 0.2 0.2 0 0 1 -0.1 0 c -0.3 0 -0.5 0.1 -0.8 0.1 h 0 c -0.2 0 -0.5 0 -0.7 0.1 c -2.8 0.2 -5.6 0.3 -8.4 0.3 c -3.1 0 -6.1 -0.1 -9.1 -0.4 h 0 c -0.7 -0.1 -1.3 -0.1 -1.9 -0.2 c -0.2 0 -0.3 0 -0.5 -0.1 c 0 0 -0.1 0 -0.1 0 c -0.1 0 -0.1 0 -0.2 0 a 0.2 0.2 0 0 1 -0.1 0 c -0.2 0 -0.4 -0.1 -0.7 -0.1 l -0.8 -0.1 c -0.3 0 -0.5 -0.1 -0.8 -0.1 c -0.1 0 -0.1 0 -0.2 0 c -0.2 0 -0.4 -0.1 -0.5 -0.1 c -0.1 0 -0.2 0 -0.3 0 c -0.2 0 -0.3 -0.1 -0.5 -0.1 h 0 a 105.7 105.7 0 0 1 -16.2 -3.6 c -0.3 -0.1 -0.6 -0.2 -0.8 -0.3 c 0 0 0 0 0 0 c -0.1 0 -0.2 -0.1 -0.3 -0.1 c -0.8 -0.2 -1.5 -0.5 -2.2 -0.8 c -1 -0.3 -2 -0.7 -3 -1.1 c -0.3 -0.1 -0.5 -0.2 -0.8 -0.3 c -0.6 -0.2 -1.1 -0.4 -1.6 -0.7 c -0.9 -0.4 -1.8 -0.8 -2.8 -1.2 c -0.8 -0.4 -1.7 -0.8 -2.5 -1.2 c 0 0 -0.1 0 -0.1 0 c -0.2 -0.1 -0.4 -0.2 -0.6 -0.3 h 0 a 107.2 107.2 0 0 1 -13.3 -7.6 q -2 -1.4 -4 -2.8 c -1.1 -0.8 -2.1 -1.6 -3.1 -2.4 a 108.3 108.3 0 0 1 -14.2 -13.6 v 0 c -0.3 -0.3 -0.6 -0.7 -0.9 -1 c -0.1 -0.1 -0.1 -0.1 -0.1 -0.1 c -0.2 -0.2 -0.4 -0.5 -0.6 -0.7 v 0 c -0.3 -0.3 -0.5 -0.6 -0.7 -0.9 c -0.1 -0.1 -0.1 -0.1 -0.2 -0.2 v 0 c -0.2 -0.2 -0.4 -0.5 -0.6 -0.7 c -0.1 -0.1 -0.2 -0.2 -0.3 -0.4 v 0 c -0.6 -0.7 -1.2 -1.5 -1.7 -2.2 c -0.1 -0.2 -0.3 -0.4 -0.5 -0.6 c -0.7 -1 -1.4 -2 -2.1 -3 v 0 c -0.3 -0.4 -0.5 -0.8 -0.8 -1.1 q -0.4 -0.6 -0.8 -1.1 c -0.3 -0.4 -0.5 -0.8 -0.8 -1.2 l 0 -0.1 c -0.3 -0.4 -0.5 -0.8 -0.7 -1.2 c -0.2 -0.3 -0.4 -0.6 -0.6 -0.9 c -0.1 -0.2 -0.3 -0.4 -0.4 -0.6 a 2.4 2.4 0 0 1 -0.1 -0.2 q -0.4 -0.7 -0.8 -1.5 c -0.3 -0.6 -0.7 -1.1 -1 -1.7 c -0.1 -0.2 -0.3 -0.5 -0.4 -0.7 c -0.1 -0.1 -0.1 -0.2 -0.1 -0.2 c -0.1 -0.3 -0.3 -0.6 -0.4 -0.9 c -0.1 -0.3 -0.3 -0.6 -0.5 -0.9 c -0.1 -0.3 -0.3 -0.6 -0.4 -0.9 c -0.1 -0.2 -0.2 -0.4 -0.3 -0.7 a 0.2 0.2 0 0 0 0 -0.1 c -0.1 -0.1 -0.1 -0.2 -0.1 -0.3 a 0.2 0.2 0 0 1 0 -0.1 c -0.1 -0.2 -0.2 -0.5 -0.3 -0.7 c -0.1 -0.3 -0.3 -0.6 -0.4 -0.9 c -0.1 -0.2 -0.2 -0.4 -0.3 -0.6 c -0.1 -0.3 -0.3 -0.6 -0.4 -0.9 c -0.1 -0.3 -0.3 -0.6 -0.4 -0.9 a 2.3 2.3 0 0 1 -0.1 -0.2 c -0.1 -0.1 -0.1 -0.3 -0.2 -0.4 c -0.2 -0.4 -0.3 -0.8 -0.5 -1.1 c -0.2 -0.4 -0.3 -0.8 -0.5 -1.3 c -0.2 -0.4 -0.3 -0.8 -0.5 -1.2 l -0.1 -0.1 a 108.3 108.3 0 0 1 -5.3 -18.9 v 0 a 109.4 109.4 0 0 1 -1.4 -11.1 c 0 -0.2 0 -0.4 0 -0.6 c -0.2 -2.5 -0.3 -5.1 -0.3 -7.6 c 0 -1.1 0 -2.3 0.1 -3.4 a 107.2 107.2 0 0 1 23.8 -64.2 c 0.3 -0.4 0.6 -0.8 1 -1.2 c 0.3 -0.4 0.7 -0.8 1 -1.2 a 107.7 107.7 0 0 1 173 12.4 c 0.5 0.8 1 1.6 1.4 2.4 c 0.5 0.8 0.9 1.6 1.4 2.4 A 107.3 107.3 0 0 1 975.7 421.2 Z" transform="translate(-195.3,-135.1)" fill="#f2f2f2"/><path d="M 872.3 350.7 a 254.2 254.2 0 0 1 -54.1 7.8 a 67.8 67.8 0 0 1 -8.3 -0.1 c -6.1 -0.5 -11.3 -2.4 -17.1 -3.5 c -2.8 -0.5 -5.9 -0.9 -8.7 -1.4 q 1 -1.2 2 -2.4 c 6 0.5 12.2 2.2 18.3 3 c 10.4 1.3 22 -0.2 29.9 -3.8 c 3.8 -1.8 6.8 -4 10.6 -5.7 a 4.9 4.9 0 0 1 1.7 -0.5 a 5.8 5.8 0 0 1 3.1 0.8 c 6.4 3.2 15.7 5.8 24.3 4.4 C 874.5 349.9 873.3 350.5 872.3 350.7 Z" transform="translate(-195.3,-135.1)" fill="#ffffff"/><path d="M 910.4 362.1 c 0.1 0 0.2 0 0.2 0 a 6.4 6.4 0 0 1 -0.9 -0.7 Z" transform="translate(-195.3,-135.1)" fill="#ffffff"/><path d="M 961.9 368.5 q -5.4 0.4 -10.8 0.6 a 68.3 68.3 0 0 1 -8.3 -0.1 c -6.1 -0.5 -11.3 -2.4 -17.1 -3.5 c -5.3 -1 -11.8 -1.4 -15.1 -3.5 c 8.7 -1.5 17.7 1.6 26.7 2.7 a 63.8 63.8 0 0 0 21.8 -1.1 Q 960.6 366 961.9 368.5 Z" transform="translate(-195.3,-135.1)" fill="#ffffff"/><ellipse cx="660.5" cy="300.2" rx="32.4" ry="33.1" fill="#ffb6b6"/><path transform="translate(-195.3,-135.1)" d="M 918.4 516.4 c -0.9 0.5 -1.7 0.9 -2.6 1.4 c -0.3 0.1 -0.6 0.3 -0.9 0.5 c -0.3 0.1 -0.5 0.3 -0.8 0.4 c -0.1 0 -0.1 0.1 -0.2 0.1 c -0.2 0.1 -0.4 0.2 -0.7 0.3 c -0.2 0.1 -0.5 0.2 -0.7 0.3 c -0.3 0.1 -0.5 0.2 -0.8 0.3 c -1 0.5 -2 0.9 -3 1.3 a 105.9 105.9 0 0 1 -11.1 3.8 c -0.2 0.1 -0.3 0.1 -0.5 0.1 q -2.4 0.7 -4.9 1.2 q -4.3 1 -8.6 1.6 h 0 c -0.3 0.1 -0.7 0.1 -1 0.1 c 0 0 -0.1 0 -0.1 0 c 0 0 0 0 0 0 c -0.4 0.1 -0.8 0.1 -1.1 0.1 a 0.2 0.2 0 0 1 -0.1 0 c -0.4 0.1 -0.7 0.1 -1.1 0.1 q -0.6 0.1 -1.2 0.1 q -0.5 0 -0.9 0.1 a 0.2 0.2 0 0 1 -0.1 0 c -0.3 0 -0.5 0.1 -0.8 0.1 h 0 c -0.2 0 -0.5 0 -0.7 0.1 c -2.8 0.2 -5.6 0.3 -8.4 0.3 c -3.1 0 -6.1 -0.1 -9.1 -0.4 h 0 c -0.7 -0.1 -1.3 -0.1 -1.9 -0.2 c -0.2 0 -0.3 0 -0.5 -0.1 c 0 0 -0.1 0 -0.1 0 c -0.1 0 -0.1 0 -0.2 0 a 0.2 0.2 0 0 1 -0.1 0 c -0.2 0 -0.4 -0.1 -0.7 -0.1 l -0.8 -0.1 c -0.3 0 -0.5 -0.1 -0.8 -0.1 c -0.1 0 -0.1 0 -0.2 0 c -0.2 0 -0.4 -0.1 -0.5 -0.1 c -0.1 0 -0.2 0 -0.3 0 c -0.2 0 -0.3 -0.1 -0.5 -0.1 h 0 a 105.7 105.7 0 0 1 -16.2 -3.6 c -0.3 -0.1 -0.6 -0.2 -0.8 -0.3 a 40.2 40.2 0 0 1 22 -27.9 a 9.5 9.5 0 0 1 -2.7 -4.9 a 9.3 9.3 0 0 1 1.3 -7 a 9 9 0 0 1 5.7 -3.9 l 14.8 -3.1 a 9.2 9.2 0 0 1 10.8 7.2 a 9.8 9.8 0 0 1 0.2 2.2 C 901.7 496.1 911.9 506 918.4 516.4 Z" fill="#6c63ff"/><path transform="translate(-195.3,-135.1)" d="M 942.4 420.9 c -5.5 -6.4 -8.1 -14.9 -12.5 -22.2 c -4.4 -7.3 -12 -13.8 -20.1 -12.1 c -5.6 1.2 -9.9 6.1 -12.1 11.6 c -2.2 5.5 -2.6 11.5 -3 17.5 c 0.1 -12.2 -7.9 -24 -18.9 -27.9 c -11 -3.9 -24.3 0.4 -31.2 10.2 a 16.9 16.9 0 0 0 -22.4 -0.5 c -6.2 5.5 -7.6 16.1 -3 23.2 s 14.5 9.7 21.7 5.8 l 2.6 2.4 c -1.4 5.1 1.4 11 6.1 12.9 c 3.8 1.5 9.2 1.3 10.6 5.3 c 1 2.8 -0.9 5.8 -2.9 7.9 c -2 2.2 -4.3 4.4 -4.6 7.3 c -0.4 4.5 4.3 7.6 8.5 8.6 c 10.2 2.3 21.5 -2.4 27.3 -11.4 q 0.2 -0.3 0.4 -0.5 a 39.3 39.3 0 0 0 7.9 -30 c -0.3 -2.1 0 -3.6 1.4 -4.1 c 6.2 -2.1 23.5 2.3 28.7 6.4 c 5.2 4 9.4 9.4 14.5 13.6 c 5 4.3 11.5 7.6 17.9 6.4 c 5.1 -0.9 9.5 -4.7 12.4 -9.2 c 2.9 -4.5 4.6 -9.7 6.1 -14.9 C 966.6 433.8 951.1 431 942.4 420.9 Z" fill="#2f2e41"/><path transform="translate(-195.3,-135.1)" d="M 278.2 354.2 c 0 2.4 0.1 4.9 0.3 7.3 c 0.2 2.9 0.5 5.7 0.9 8.6 a 107.2 107.2 0 0 0 8 27.7 q 0.3 0.7 0.6 1.3 l 0.3 0.7 c 0.1 0.2 0.2 0.4 0.3 0.7 c 0.1 0.3 0.3 0.6 0.4 0.8 c 0.2 0.3 0.3 0.7 0.5 1.1 c 0 0 0 0.1 0.1 0.1 c 0.1 0.3 0.3 0.6 0.5 0.9 a 1.7 1.7 0 0 0 0.1 0.2 c 0.2 0.3 0.3 0.7 0.5 1 c 0.2 0.4 0.4 0.7 0.6 1.1 c 0.5 0.9 1 1.8 1.5 2.6 c 0.1 0.3 0.3 0.5 0.5 0.8 c 0.1 0.2 0.3 0.5 0.4 0.7 c 0.1 0.2 0.2 0.3 0.3 0.5 c 0.2 0.3 0.3 0.5 0.5 0.8 c 0.4 0.6 0.8 1.2 1.1 1.8 h 0 c 0.2 0.3 0.3 0.5 0.5 0.8 v 0 c 0.5 0.8 1.1 1.6 1.6 2.4 a 0 0 0 0 1 0 0 c 0.4 0.6 0.9 1.3 1.4 1.9 v 0 c 0.3 0.4 0.6 0.8 0.9 1.2 c 0.2 0.3 0.5 0.7 0.7 1 c 0.1 0.1 0.1 0.1 0.2 0.2 v 0 c 0.1 0.1 0.1 0.2 0.2 0.3 q 1.6 2 3.3 4 l 0.2 0.2 c 0.1 0.1 0.1 0.1 0.2 0.2 c 0.1 0.1 0.2 0.2 0.3 0.3 c 0.1 0.1 0.2 0.2 0.3 0.3 a 108.6 108.6 0 0 0 19.8 17.5 c 1 0.7 2 1.3 3 1.9 c 0.3 0.2 0.5 0.3 0.8 0.5 c 0.1 0.1 0.1 0.1 0.2 0.1 c 0.1 0.1 0.3 0.2 0.4 0.3 c 0.1 0.1 0.3 0.2 0.4 0.2 c 0.5 0.3 1.1 0.7 1.6 1 c 0.1 0.1 0.3 0.2 0.4 0.2 c 0.1 0.1 0.3 0.1 0.4 0.2 c 0 0 0 0 0 0 h 0 v 0 h 0 q 1 0.6 2 1.1 c 0.4 0.2 0.8 0.4 1.1 0.6 c 0.9 0.5 1.7 0.9 2.6 1.4 c 0.3 0.1 0.6 0.3 0.9 0.5 c 0.3 0.1 0.5 0.3 0.8 0.4 c 0.1 0 0.1 0.1 0.2 0.1 c 0.2 0.1 0.4 0.2 0.7 0.3 c 0.2 0.1 0.5 0.2 0.7 0.3 c 0.3 0.1 0.5 0.2 0.8 0.3 c 1 0.5 2 0.9 3 1.3 a 105.9 105.9 0 0 0 11.1 3.8 c 0.2 0.1 0.3 0.1 0.5 0.1 q 2.4 0.7 4.9 1.2 q 4.3 1 8.6 1.6 h 0 c 0.3 0.1 0.7 0.1 1 0.1 c 0 0 0.1 0 0.1 0 c 0 0 0 0 0 0 c 0.4 0.1 0.8 0.1 1.1 0.1 a 0.2 0.2 0 0 0 0.1 0 c 0.4 0.1 0.7 0.1 1.1 0.1 q 0.6 0.1 1.2 0.1 q 0.5 0 0.9 0.1 a 0.2 0.2 0 0 0 0.1 0 c 0.3 0 0.5 0.1 0.8 0.1 h 0 c 0.2 0 0.5 0 0.7 0.1 c 2.8 0.2 5.6 0.3 8.4 0.3 c 3.1 0 6.1 -0.1 9.1 -0.4 h 0 c 0.7 -0.1 1.3 -0.1 1.9 -0.2 c 0.2 0 0.3 0 0.5 -0.1 c 0 0 0.1 0 0.1 0 c 0.1 0 0.1 0 0.2 0 a 0.2 0.2 0 0 0 0.1 0 c 0.2 0 0.4 -0.1 0.7 -0.1 l 0.8 -0.1 c 0.3 0 0.5 -0.1 0.8 -0.1 c 0.1 0 0.1 0 0.2 0 c 0.2 0 0.4 -0.1 0.5 -0.1 c 0.1 0 0.2 0 0.3 0 c 0.2 0 0.3 -0.1 0.5 -0.1 h 0 a 105.7 105.7 0 0 0 16.2 -3.6 c 0.3 -0.1 0.6 -0.2 0.8 -0.3 c 0 0 0 0 0 0 c 0.1 0 0.2 -0.1 0.3 -0.1 c 0.8 -0.2 1.5 -0.5 2.2 -0.8 c 1 -0.3 2 -0.7 3 -1.1 c 0.3 -0.1 0.5 -0.2 0.8 -0.3 c 0.6 -0.2 1.1 -0.4 1.6 -0.7 c 0.9 -0.4 1.8 -0.8 2.8 -1.2 c 0.8 -0.4 1.7 -0.8 2.5 -1.2 c 0 0 0.1 0 0.1 0 c 0.2 -0.1 0.4 -0.2 0.6 -0.3 h 0 a 107.2 107.2 0 0 0 13.3 -7.6 q 2 -1.4 4 -2.8 c 1.1 -0.8 2.1 -1.6 3.1 -2.4 a 108.3 108.3 0 0 0 14.2 -13.6 v 0 c 0.3 -0.3 0.6 -0.7 0.9 -1 c 0.1 -0.1 0.1 -0.1 0.1 -0.1 c 0.2 -0.2 0.4 -0.5 0.6 -0.7 v 0 c 0.3 -0.3 0.5 -0.6 0.7 -0.9 c 0.1 -0.1 0.1 -0.1 0.2 -0.2 v 0 c 0.2 -0.2 0.4 -0.5 0.6 -0.7 c 0.1 -0.1 0.2 -0.2 0.3 -0.4 v 0 c 0.6 -0.7 1.2 -1.5 1.7 -2.2 c 0.1 -0.2 0.3 -0.4 0.5 -0.6 c 0.7 -1 1.4 -2 2.1 -3 v 0 c 0.3 -0.4 0.5 -0.8 0.8 -1.1 q 0.4 -0.6 0.8 -1.1 c 0.3 -0.4 0.5 -0.8 0.8 -1.2 l 0 -0.1 c 0.3 -0.4 0.5 -0.8 0.7 -1.2 c 0.2 -0.3 0.4 -0.6 0.6 -0.9 c 0.1 -0.2 0.3 -0.4 0.4 -0.6 a 2.4 2.4 0 0 0 0.1 -0.2 q 0.4 -0.7 0.8 -1.5 c 0.3 -0.6 0.7 -1.1 1 -1.7 c 0.1 -0.2 0.3 -0.5 0.4 -0.7 c 0.1 -0.1 0.1 -0.2 0.1 -0.2 c 0.1 -0.3 0.3 -0.6 0.4 -0.9 c 0.1 -0.3 0.3 -0.6 0.5 -0.9 c 0.1 -0.3 0.3 -0.6 0.4 -0.9 c 0.1 -0.2 0.2 -0.4 0.3 -0.7 a 0.2 0.2 0 0 1 0 -0.1 c 0.1 -0.1 0.1 -0.2 0.1 -0.3 a 0.2 0.2 0 0 0 0 -0.1 c 0.1 -0.2 0.2 -0.5 0.3 -0.7 c 0.1 -0.3 0.3 -0.6 0.4 -0.9 c 0.1 -0.2 0.2 -0.4 0.3 -0.6 c 0.1 -0.3 0.3 -0.6 0.4 -0.9 c 0.1 -0.3 0.3 -0.6 0.4 -0.9 a 2.3 2.3 0 0 0 0.1 -0.2 c 0.1 -0.1 0.1 -0.3 0.2 -0.4 c 0.2 -0.4 0.3 -0.8 0.5 -1.1 c 0.2 -0.4 0.3 -0.8 0.5 -1.3 c 0.2 -0.4 0.3 -0.8 0.5 -1.2 l 0.1 -0.1 a 108.3 108.3 0 0 0 5.3 -18.9 v 0 a 109.4 109.4 0 0 0 1.4 -11.1 c 0 -0.2 0 -0.4 0 -0.6 c 0.2 -2.5 0.3 -5.1 0.3 -7.6 c 0 -1.1 0 -2.3 -0.1 -3.4 a 107.2 107.2 0 0 0 -23.8 -64.2 c -0.3 -0.4 -0.6 -0.8 -1 -1.2 c -0.3 -0.4 -0.7 -0.8 -1 -1.2 a 107.7 107.7 0 0 0 -173 12.4 c -0.5 0.8 -1 1.6 -1.4 2.4 c -0.5 0.8 -0.9 1.6 -1.4 2.4 A 107.3 107.3 0 0 0 278.2 354.2 Z" fill="#f2f2f2"/><path d="M 381.6 283.7 a 254.2 254.2 0 0 0 54.1 7.8 a 67.8 67.8 0 0 0 8.3 -0.1 c 6.1 -0.5 11.3 -2.4 17.1 -3.5 c 2.8 -0.5 5.9 -0.9 8.7 -1.4 q -1 -1.2 -2 -2.4 c -6 0.5 -12.2 2.2 -18.3 3 c -10.4 1.3 -22 -0.2 -29.9 -3.8 c -3.8 -1.8 -6.8 -4 -10.6 -5.7 a 4.9 4.9 0 0 0 -1.7 -0.5 a 5.8 5.8 0 0 0 -3.1 0.8 c -6.4 3.2 -15.7 5.8 -24.3 4.4 C 379.3 282.9 380.6 283.5 381.6 283.7 Z" transform="translate(-195.3,-135.1)" fill="#ffffff"/><path d="M 343.5 295.1 c -0.1 0 -0.2 0 -0.2 0 a 6.4 6.4 0 0 0 0.9 -0.7 Z" transform="translate(-195.3,-135.1)" fill="#ffffff"/><path d="M 291.9 301.5 q 5.4 0.4 10.8 0.6 a 68.3 68.3 0 0 0 8.3 -0.1 c 6.1 -0.5 11.3 -2.4 17.1 -3.5 c 5.3 -1 11.8 -1.4 15.1 -3.5 c -8.7 -1.5 -17.7 1.6 -26.7 2.7 a 63.8 63.8 0 0 1 -21.8 -1.1 Q 293.3 299 291.9 301.5 Z" transform="translate(-195.3,-135.1)" fill="#ffffff"/><path d="M 335.5 449.4 c 0.9 0.5 1.7 0.9 2.6 1.4 c 0.3 0.1 0.6 0.3 0.9 0.5 c 0.3 0.1 0.5 0.3 0.8 0.4 c 0.1 0 0.1 0.1 0.2 0.1 c 0.2 0.1 0.4 0.2 0.7 0.3 c 0.2 0.1 0.5 0.2 0.7 0.3 c 0.3 0.1 0.5 0.2 0.8 0.3 c 1 0.5 2 0.9 3 1.3 a 105.9 105.9 0 0 0 11.1 3.8 c 0.2 0.1 0.3 0.1 0.5 0.1 q 2.4 0.7 4.9 1.2 q 4.3 1 8.6 1.6 h 0 c 0.3 0.1 0.7 0.1 1 0.1 c 0 0 0.1 0 0.1 0 c 0 0 0 0 0 0 c 0.4 0.1 0.8 0.1 1.1 0.1 a 0.2 0.2 0 0 0 0.1 0 c 0.4 0.1 0.7 0.1 1.1 0.1 q 0.6 0.1 1.2 0.1 q 0.5 0 0.9 0.1 a 0.2 0.2 0 0 0 0.1 0 c 0.3 0 0.5 0.1 0.8 0.1 h 0 c 0.2 0 0.5 0 0.7 0.1 c 2.8 0.2 5.6 0.3 8.4 0.3 c 3.1 0 6.1 -0.1 9.1 -0.4 h 0 c 0.7 -0.1 1.3 -0.1 1.9 -0.2 c 0.2 0 0.3 0 0.5 -0.1 c 0 0 0.1 0 0.1 0 c 0.1 0 0.1 0 0.2 0 a 0.2 0.2 0 0 0 0.1 0 c 0.2 0 0.4 -0.1 0.7 -0.1 l 0.8 -0.1 c 0.3 0 0.5 -0.1 0.8 -0.1 c 0.1 0 0.1 0 0.2 0 c 0.2 0 0.4 -0.1 0.5 -0.1 c 0.1 0 0.2 0 0.3 0 c 0.2 0 0.3 -0.1 0.5 -0.1 h 0 a 105.7 105.7 0 0 0 16.2 -3.6 c 0.3 -0.1 0.6 -0.2 0.8 -0.3 a 40.2 40.2 0 0 0 -22 -27.9 a 9.5 9.5 0 0 0 2.7 -4.9 a 9.3 9.3 0 0 0 -1.3 -7 a 9 9 0 0 0 -5.7 -3.9 l -14.8 -3.1 a 9.2 9.2 0 0 0 -10.8 7.2 a 9.8 9.8 0 0 0 -0.2 2.2 C 352.2 429.1 341.9 439 335.5 449.4 Z" transform="translate(-195.3,-135.1)" fill="#6c63ff"/><circle cx="198.8" cy="229" r="36.1" fill="#9e616a"/><path transform="translate(-195.3,-135.1)" d="M 389 398.3 c -9 2.4 -19 -0.8 -26 -7 s -11.5 -14.9 -14 -23.9 c -1.9 -6.6 -2.7 -13.9 0.2 -20.1 s 10.8 -10.4 16.9 -7.2 c -3.8 -4.4 -1.9 -11.6 2.5 -15.4 s 10.4 -4.8 16.2 -5.4 c 8.3 -0.9 16.9 -0.9 24.9 1.8 s 15.1 8.6 17.6 16.6 a 12.6 12.6 0 0 0 15.1 -3.4 a 11.5 11.5 0 0 1 -6.3 12.4 l 12.2 -3.9 c 2.1 4.4 -1.6 9.9 -6.3 11.3 s -9.7 -0.1 -14.2 -2.2 s -8.8 -4.6 -13.6 -5.4 s -10.5 0.8 -12.7 5.1 c -1.2 2.3 -1.2 5 -1.9 7.4 s -2.4 5 -5 5.2 c -1.6 0.1 -3.2 -0.7 -4.8 -0.6 a 5.2 5.2 0 0 0 -4.1 4 a 15.2 15.2 0 0 0 0 6 l 3.1 23.6 Z" fill="#2f2e41"/><radialGradient id="9wq60kut"/>
</svg>
